<svg xmlns="http://www.w3.org/2000/svg" xmlns:xlink="http://www.w3.org/1999/xlink"><defs>
<clipPath id="clip0_2_237">
<rect width="52" height="52" fill="white"/>
</clipPath>

<clipPath id="clip0_1_592">
<rect width="64" height="64" fill="white"/>
</clipPath>

<clipPath id="clip0_4_80">
<rect width="48" height="48" fill="white"/>
</clipPath>

<clipPath id="clip0_4_91">
<rect width="48" height="48.0938" fill="white"/>
</clipPath>
</defs><symbol id="icon-arrow-left" viewBox="0 0 22 22">
<path fill-rule="evenodd" clip-rule="evenodd" d="M11.9428 2.60952C12.4635 2.08882 12.4635 1.2446 11.9428 0.723898C11.4221 0.203199 10.5779 0.203199 10.0572 0.723898L0.723837 10.0572C0.203138 10.5779 0.203138 11.4222 0.723837 11.9428L10.0572 21.2762C10.5779 21.7969 11.4221 21.7969 11.9428 21.2762C12.4635 20.7555 12.4635 19.9113 11.9428 19.3906L4.8856 12.3334H20.3333C21.0697 12.3334 21.6666 11.7364 21.6666 11C21.6666 10.2637 21.0697 9.66671 20.3333 9.66671H4.8856L11.9428 2.60952Z" fill="currentColor"/>
</symbol><symbol id="icon-arrow-right" viewBox="0 0 61 16">
<path d="M0 8H59M59 8L52 1M59 8L52 15" stroke="#098FCF" stroke-width="2"/>
</symbol><symbol id="icon-arrow" viewBox="0 0 24 24">
<path d="M7 9L12 14L17 9" stroke="black" fill="none" stroke-width="1.8"/>
</symbol><symbol id="icon-arrow2" viewBox="0 0 64 64">
<path d="M63.4507 52.8443L52.6372 42.0308L57.9406 36.7275C58.4001 36.268 58.589 35.6034 58.4396 34.9709C58.2902 34.3384 57.8242 33.8284 57.2077 33.6229L25.388 23.0163C24.7144 22.7916 23.9714 22.967 23.4692 23.4693C22.967 23.9715 22.7916 24.7143 23.0162 25.388L33.6229 57.2079C33.8285 57.8244 34.3385 58.2905 34.9709 58.4398C35.6032 58.5894 36.268 58.4004 36.7275 57.9408L42.0309 52.6375L52.8444 63.4509C53.2105 63.817 53.6904 64.0001 54.1701 64.0001C54.6499 64.0001 55.1299 63.8171 55.4959 63.4509L63.4509 55.4959C64.1831 54.7636 64.1831 53.5765 63.4507 52.8443ZM54.17 59.4734L43.3565 48.66C42.6244 47.9278 41.437 47.9278 40.7049 48.66L36.221 53.1439L27.7596 27.7598L53.1437 36.2211L48.6599 40.705C47.9282 41.4365 47.9276 42.6245 48.6599 43.3566L59.4734 54.1701L54.17 59.4734Z" fill="currentColor"/>
<path d="M24.375 15C25.4105 15 26.25 14.1605 26.25 13.125V1.875C26.25 0.8395 25.4105 0 24.375 0C23.3395 0 22.5 0.8395 22.5 1.875V13.125C22.5 14.1605 23.3395 15 24.375 15Z" fill="currentColor"/>
<path d="M9.79089 7.13921C9.05876 6.40696 7.87151 6.40696 7.13926 7.13921C6.40701 7.87146 6.40701 9.05859 7.13926 9.79084L15.0943 17.7458C15.8264 18.4781 17.0138 18.4781 17.7459 17.7458C18.4781 17.0136 18.4781 15.8265 17.7459 15.0942L9.79089 7.13921Z" fill="currentColor"/>
<path d="M15.0943 31.0041L7.13926 38.9591C6.40701 39.6914 6.40701 40.8785 7.13926 41.6108C7.87139 42.343 9.05876 42.343 9.79089 41.6108L17.7459 33.6558C18.4781 32.9235 18.4781 31.7364 17.7459 31.0041C17.0136 30.2719 15.8264 30.2719 15.0943 31.0041Z" fill="currentColor"/>
<path d="M33.6558 17.7458L41.6108 9.79084C42.343 9.05859 42.343 7.87146 41.6108 7.13921C40.8786 6.40696 39.6914 6.40696 38.9591 7.13921L31.0041 15.0942C30.2719 15.8265 30.2719 17.0136 31.0041 17.7458C31.7363 18.4781 32.9236 18.4781 33.6558 17.7458Z" fill="currentColor"/>
<path d="M15 24.375C15 23.3395 14.1605 22.5 13.125 22.5H1.875C0.8395 22.5 0 23.3395 0 24.375C0 25.4105 0.8395 26.25 1.875 26.25H13.125C14.1605 26.25 15 25.4105 15 24.375Z" fill="currentColor"/>
</symbol><symbol id="icon-certificate" viewBox="0 0 48 48">
<path fill-rule="evenodd" clip-rule="evenodd" d="M39.7536 9.38926C39.7533 9.37901 39.7529 9.36876 39.7522 9.3585C39.7492 9.31785 39.7452 9.27794 39.7371 9.23839C39.7371 9.23839 39.7371 9.23839 39.7371 9.23802C39.7291 9.19847 39.7177 9.15928 39.7049 9.1212C39.7016 9.11168 39.6983 9.10216 39.6947 9.09263C39.6811 9.05638 39.6657 9.02086 39.6482 8.98643C39.6471 8.9846 39.6463 8.98277 39.6452 8.98094C39.6262 8.94505 39.6042 8.91099 39.5804 8.87767C39.5746 8.86925 39.5683 8.86119 39.5621 8.85277C39.5368 8.81981 39.5105 8.78795 39.4808 8.75828L30.9972 0.274658C30.9675 0.244995 30.9357 0.218627 30.9027 0.193359C30.8943 0.187133 30.8858 0.180542 30.8774 0.174682C30.8441 0.150879 30.8104 0.128906 30.7749 0.110229C30.7723 0.108764 30.7698 0.108032 30.7676 0.106567C30.7339 0.0889891 30.6987 0.0739744 30.6632 0.0604247C30.6533 0.0567626 30.6438 0.0534666 30.6335 0.0501708C30.5954 0.0373535 30.557 0.026001 30.5171 0.0179443C30.5167 0.0179443 30.5163 0.0179443 30.5163 0.0179443C30.4772 0.0102539 30.4372 0.00585936 30.397 0.00292968C30.3867 0.00256348 30.3764 0.00183105 30.3662 0.00146484C30.3556 0.00109864 30.345 0 30.3343 0H9.09378C8.57596 0 8.15628 0.419677 8.15628 0.937498V41.0646C8.15628 41.5824 8.57596 42.0021 9.09378 42.0021H23.2083V47.0624C23.2083 47.4034 23.3936 47.7176 23.692 47.8827C23.9908 48.0479 24.3552 48.038 24.6442 47.8567L28.2147 45.6166L31.7853 47.8567C31.9372 47.9519 32.1105 47.9999 32.2837 47.9999C32.4397 47.9999 32.5961 47.9611 32.7374 47.8831C33.0359 47.7179 33.2212 47.4037 33.2212 47.0624V42.0021H38.8176C39.3354 42.0021 39.7551 41.5824 39.7551 41.0646V9.42112C39.7551 9.4105 39.754 9.39988 39.7536 9.38926ZM31.2718 3.20104L36.5544 8.48363H31.2718V3.20104ZM22.7457 28.9566C22.6798 28.7775 22.5725 28.4849 22.5699 28.3652C22.6432 28.2744 22.8973 28.1136 23.053 28.0154C23.387 27.8045 23.7656 27.565 24.0403 27.1907C24.3175 26.8124 24.4303 26.3756 24.5299 25.9903C24.5735 25.8218 24.6438 25.5498 24.7039 25.4469C24.7368 25.4399 24.806 25.43 24.936 25.43C25.0404 25.43 25.1572 25.4359 25.281 25.4421C25.4231 25.449 25.5696 25.4564 25.7227 25.4564C26.0603 25.4564 26.3328 25.4183 26.5799 25.3359C27.0117 25.1923 27.357 24.9144 27.6617 24.669C27.8302 24.5335 28.1122 24.3065 28.2103 24.2926C28.3176 24.3065 28.5992 24.5335 28.7677 24.669C29.0724 24.9144 29.4181 25.1923 29.8498 25.3359C30.097 25.4183 30.3691 25.4564 30.7071 25.4564C30.8598 25.4564 31.0067 25.449 31.1484 25.4421C31.2722 25.4359 31.389 25.43 31.4938 25.43C31.6238 25.43 31.6926 25.4395 31.7259 25.4469C31.786 25.5498 31.8563 25.8218 31.8995 25.9903C31.9991 26.3756 32.1123 26.8124 32.3895 27.1907C32.6638 27.565 33.0425 27.8041 33.3768 28.0154C33.5321 28.114 33.7862 28.2744 33.8595 28.3652C33.8569 28.4849 33.7496 28.7775 33.6841 28.9566C33.5445 29.3364 33.3867 29.767 33.3867 30.2442C33.3867 30.7214 33.5445 31.152 33.6837 31.5322C33.7496 31.7112 33.8569 32.0038 33.8595 32.1236C33.7862 32.2144 33.5321 32.3748 33.3768 32.4733C33.0425 32.6843 32.6638 32.9238 32.3895 33.298C32.1123 33.6763 31.9991 34.1132 31.8995 34.4985C31.8563 34.6666 31.7856 34.939 31.7259 35.0419C31.6926 35.0489 31.6238 35.0588 31.4938 35.0588C31.389 35.0588 31.2722 35.0529 31.1484 35.0467C31.0067 35.0397 30.8598 35.0324 30.7071 35.0324C30.3691 35.0324 30.097 35.0705 29.8498 35.1529C29.4181 35.2964 29.0724 35.5748 28.7677 35.8198C28.6018 35.9538 28.3249 36.1761 28.2147 36.1959C28.1045 36.1761 27.828 35.9538 27.6621 35.8198C27.357 35.5748 27.0117 35.2964 26.5799 35.1529C26.3328 35.0705 26.0603 35.0324 25.7227 35.0324C25.5699 35.0324 25.4231 35.0397 25.281 35.0467C25.1576 35.0529 25.0408 35.0588 24.936 35.0588C24.806 35.0588 24.7372 35.0489 24.7039 35.0419C24.6438 34.939 24.5735 34.6669 24.5299 34.4985C24.4307 34.1132 24.3175 33.6763 24.0403 33.298C23.766 32.9238 23.3873 32.6843 23.053 32.4733C22.8977 32.3752 22.6436 32.2144 22.5703 32.1236C22.5729 32.0042 22.6802 31.7112 22.7457 31.5322C22.8853 31.1524 23.0431 30.7217 23.0431 30.2446C23.0431 29.767 22.8849 29.3364 22.7457 28.9566ZM31.3462 45.3676L28.7131 43.7156C28.4084 43.5248 28.021 43.5248 27.7163 43.7156L25.0832 45.3676V36.9308C25.1829 36.9279 25.2806 36.9242 25.3755 36.9195C25.4996 36.9129 25.6168 36.907 25.7227 36.907C25.8889 36.907 25.96 36.9224 25.9874 36.9316C26.0991 36.9689 26.3137 37.1418 26.4862 37.2806C26.9238 37.6329 27.4684 38.0712 28.2147 38.0712C28.961 38.0712 29.5056 37.6329 29.9432 37.2806C30.1157 37.1418 30.3303 36.9689 30.4416 36.9319C30.4695 36.9228 30.5405 36.9074 30.7068 36.9074C30.8126 36.9074 30.9298 36.9133 31.0539 36.9195C31.1488 36.9242 31.2466 36.9283 31.3458 36.9308V45.3676H31.3462ZM33.2212 40.1271V36.1753C33.4999 35.7967 33.6163 35.3484 33.7148 34.9676C33.7665 34.7676 33.8371 34.4941 33.9016 34.4066C33.9657 34.3187 34.2041 34.1681 34.378 34.0583C34.8395 33.7668 35.4137 33.4039 35.6418 32.7176C35.8674 32.0405 35.6327 31.4007 35.4441 30.8865C35.3584 30.6533 35.2613 30.3885 35.2613 30.2442C35.2613 30.0999 35.3584 29.8355 35.4441 29.6022C35.6327 29.0881 35.8674 28.4479 35.6418 27.7708C35.4137 27.0849 34.8395 26.722 34.378 26.4305C34.2041 26.3206 33.9657 26.1698 33.9016 26.0826C33.8371 25.9947 33.7665 25.7211 33.7148 25.5212C33.5801 24.9993 33.4123 24.3497 32.8381 23.9285C32.3811 23.5938 31.8519 23.555 31.4934 23.555C31.3418 23.555 31.1953 23.5623 31.0539 23.5697C30.9298 23.5759 30.8126 23.5817 30.7071 23.5817C30.5405 23.5817 30.4695 23.5664 30.442 23.5572C30.3307 23.5202 30.1161 23.3474 29.9436 23.2082C29.5056 22.8563 28.961 22.4179 28.2147 22.4179C27.4687 22.4179 26.9238 22.8563 26.4862 23.2082C26.3137 23.347 26.0991 23.5202 25.9878 23.5572C25.9603 23.5664 25.8889 23.5817 25.7227 23.5817C25.6172 23.5817 25.4996 23.5759 25.3755 23.5693C25.2341 23.5623 25.088 23.555 24.936 23.555C24.5779 23.555 24.0487 23.5938 23.592 23.9285C23.0175 24.3497 22.8494 24.9993 22.7146 25.5212C22.663 25.7211 22.5923 25.9947 22.5282 26.0822C22.4637 26.1698 22.2253 26.3206 22.0514 26.4305C21.59 26.722 21.0161 27.0849 20.7876 27.7708C20.562 28.4483 20.7968 29.0881 20.9854 29.6022C21.071 29.8355 21.1681 30.0999 21.1681 30.2442C21.1681 30.3885 21.071 30.6533 20.9854 30.8865C20.7968 31.4007 20.562 32.0405 20.7876 32.718C21.0161 33.4039 21.5903 33.7668 22.0514 34.0583C22.2257 34.1681 22.4637 34.319 22.5282 34.4066C22.5923 34.4941 22.663 34.7676 22.7146 34.9676C22.8131 35.3484 22.9299 35.7971 23.2086 36.1753V40.1271H10.0313V1.875H29.3968V9.42112C29.3968 9.93895 29.8165 10.3586 30.3343 10.3586H37.8801V40.1271H33.2212Z" fill="black"/>
<path fill-rule="evenodd" clip-rule="evenodd" d="M13.6747 10.3586H25.7531C26.2705 10.3586 26.6906 9.93896 26.6906 9.42114C26.6906 8.90332 26.2705 8.48364 25.7531 8.48364H13.6747C13.1569 8.48364 12.7372 8.90332 12.7372 9.42114C12.7372 9.93896 13.1573 10.3586 13.6747 10.3586Z" fill="black"/>
<path fill-rule="evenodd" clip-rule="evenodd" d="M34.3415 13.2158H13.6747C13.1569 13.2158 12.7372 13.6355 12.7372 14.1533C12.7372 14.6711 13.1569 15.0908 13.6747 15.0908H34.3415C34.8593 15.0908 35.279 14.6711 35.279 14.1533C35.279 13.6355 34.8593 13.2158 34.3415 13.2158Z" fill="black"/>
<path fill-rule="evenodd" clip-rule="evenodd" d="M30.5915 17.948H13.6747C13.1569 17.948 12.7372 18.368 12.7372 18.8855C12.7372 19.4033 13.1569 19.823 13.6747 19.823H30.5915C31.1093 19.823 31.529 19.4033 31.529 18.8855C31.529 18.368 31.1093 17.948 30.5915 17.948Z" fill="black"/>
<path fill-rule="evenodd" clip-rule="evenodd" d="M34.3415 17.948C33.8251 17.948 33.404 18.3691 33.404 18.8855C33.404 19.4019 33.8251 19.823 34.3415 19.823C34.8582 19.823 35.279 19.4019 35.279 18.8855C35.279 18.3691 34.8582 17.948 34.3415 17.948Z" fill="black"/>
</symbol><symbol id="icon-check" viewBox="0 0 24 24">
<path d="M5 11.5L9.5 16L18.5 7" stroke="black" stroke-width="1.8"/>
</symbol><symbol id="icon-clock" viewBox="0 0 52 52">
<g clip-path="url(#clip0_2_237)">
<path d="M26.0185 51.0655H26.0165C12.196 51.0655 0.952 39.8215 0.951 26.0005C0.951 12.18 12.1945 0.935974 26.0155 0.935974C39.836 0.935974 51.0795 12.18 51.0795 26.0005C51.0795 39.8215 39.8375 51.0655 26.0185 51.0655ZM26.0155 2.93597C13.2975 2.93597 2.951 13.283 2.951 26.0005C2.952 38.7185 13.299 49.0655 26.0165 49.0655H26.0185C38.7345 49.0655 49.0795 38.719 49.0795 26.0005C49.0795 13.283 38.733 2.93597 26.0155 2.93597Z" fill="black"/>
<path d="M26.018 43.75H26.0165C16.2295 43.75 8.2665 35.787 8.2655 26C8.2655 16.213 16.228 8.25049 26.0155 8.25049C35.803 8.25049 43.7655 16.213 43.7655 26C43.7655 35.787 35.804 43.75 26.018 43.75ZM26.0155 10.2505C17.331 10.2505 10.2655 17.3155 10.2655 26C10.2665 34.685 17.3325 41.75 26.0165 41.75H26.018C34.701 41.75 41.7655 34.6845 41.7655 26C41.7655 17.3155 34.7 10.2505 26.0155 10.2505Z" fill="black"/>
<path d="M26.0155 29.117C25.1835 29.117 24.401 28.794 23.8125 28.207C22.596 26.988 22.5965 25.01 23.8115 23.796C24.4005 23.207 25.183 22.883 26.0155 22.883C26.848 22.883 27.6305 23.207 28.2195 23.7965C29.4345 25.0145 29.4335 26.9925 28.2185 28.206C27.63 28.794 26.8475 29.117 26.0155 29.117ZM26.0155 24.883C25.717 24.883 25.437 24.999 25.2255 25.2105C24.79 25.646 24.7905 26.3555 25.2265 26.7925C25.645 27.2105 26.383 27.213 26.805 26.791C27.2405 26.356 27.24 25.6465 26.8045 25.2095C26.594 24.9995 26.314 24.883 26.0155 24.883Z" fill="black"/>
<path d="M27.5125 25.5035C27.2565 25.5035 27.001 25.406 26.8055 25.2105C26.415 24.82 26.415 24.187 26.8055 23.7965L33.707 16.895C34.0975 16.5045 34.7305 16.5045 35.121 16.895C35.5115 17.2855 35.5115 17.9185 35.121 18.309L28.2195 25.2105C28.0245 25.406 27.7685 25.5035 27.5125 25.5035Z" fill="black"/>
<path d="M24.508 25.493C24.252 25.493 23.9965 25.3955 23.801 25.2L18.676 20.0745C18.2855 19.684 18.2855 19.051 18.676 18.66C19.0665 18.27 19.6995 18.2695 20.09 18.66L25.215 23.786C25.6055 24.1765 25.6055 24.8095 25.215 25.2C25.0195 25.396 24.7635 25.493 24.508 25.493Z" fill="black"/>
</g>

</symbol><symbol id="icon-gas" viewBox="0 0 64 64">
<g clip-path="url(#clip0_1_592)">
<path d="M58.3819 11.3743V7.62425H28.9194V0H12.987V7.62425H5.61813V11.3743H8.91325V60.25H5.61813V64H58.3817V60.25H55.0866V11.3743H58.3819ZM16.737 3.75H25.1694V7.62425H16.737V3.75ZM51.3366 48.0859H12.6634V23.5386H51.3367V48.0859H51.3366ZM12.6634 60.25V51.8359H51.3367V60.25H12.6634ZM51.3366 19.7886H12.6634V11.3743H51.3367V19.7886H51.3366Z" fill="currentColor"/>
<path d="M32 43.7955C35.6031 43.7955 38.5345 40.8641 38.5345 37.261C38.5345 33.1816 33.7731 28.9237 33.2303 28.4515L32 27.3817L30.7696 28.4516C30.2267 28.9237 25.4654 33.1817 25.4654 37.2611C25.4655 40.8641 28.3969 43.7955 32 43.7955ZM31.9953 32.4868C32.272 32.783 32.5736 33.123 32.8758 33.4941C34.0889 34.9841 34.7846 36.357 34.7846 37.2611C34.7846 38.7965 33.5355 40.0456 32.0001 40.0456C30.4648 40.0456 29.2156 38.7965 29.2156 37.2611C29.2155 35.9521 30.5983 33.988 31.9953 32.4868Z" fill="currentColor"/>
</g>

</symbol><symbol id="icon-phone" viewBox="0 0 18 18">
<path d="M0.766667 5.50834C1.39896 8.37759 2.83884 11.0061 4.91638 13.0836C6.99393 15.1612 9.62242 16.601 12.4917 17.2333C13.3936 17.415 14.3308 17.2556 15.1221 16.7861C15.9133 16.3166 16.5022 15.5703 16.775 14.6917L17.2 13.3583L13.0333 11.2833L11.05 13.2667C9.64082 12.6594 8.3555 11.7978 7.25833 10.725C6.20046 9.62438 5.35314 8.33929 4.75833 6.93334L6.71667 4.95001L4.64167 0.78334L3.30833 1.20834C2.42623 1.48129 1.67731 2.07282 1.20746 2.86772C0.737613 3.66261 0.580479 4.60394 0.766667 5.50834V5.50834Z" fill="black"/>
</symbol><symbol id="icon-phone2" viewBox="0 0 64 64">
<path d="M50.5802 39.6457C49.2699 38.2814 47.6895 37.552 46.0146 37.552C44.3531 37.552 42.7592 38.2679 41.395 39.6322L37.1266 43.8871C36.7754 43.698 36.4242 43.5224 36.0865 43.3468C35.6002 43.1036 35.1409 42.874 34.7492 42.6309C30.751 40.0914 27.1174 36.782 23.6324 32.5001C21.944 30.3659 20.8093 28.5694 19.9854 26.7459C21.093 25.7328 22.1196 24.6792 23.1191 23.6661C23.4974 23.2879 23.8756 22.8962 24.2538 22.518C27.0904 19.6814 27.0904 16.0073 24.2538 13.1707L20.5662 9.48311C20.1475 9.06438 19.7152 8.63213 19.31 8.19989C18.4995 7.36241 17.6485 6.49792 16.7705 5.68747C15.4603 4.39073 13.8934 3.70184 12.2455 3.70184C10.5976 3.70184 9.00366 4.39073 7.65289 5.68747C7.63938 5.70097 7.63938 5.70097 7.62588 5.71448L3.03328 10.3476C1.3043 12.0766 0.318243 14.1838 0.102121 16.6287C-0.222062 20.5729 0.939595 24.247 1.8311 26.6513C4.01934 32.5542 7.28819 38.0247 12.1644 43.8871C18.0808 50.9516 25.1993 56.5302 33.3309 60.4609C36.4377 61.9333 40.5845 63.6758 45.2176 63.9729C45.5013 63.9864 45.7985 63.9999 46.0686 63.9999C49.1889 63.9999 51.8094 62.8788 53.8625 60.65C53.876 60.623 53.903 60.6095 53.9166 60.5825C54.619 59.7315 55.4294 58.9616 56.2804 58.1376C56.8612 57.5838 57.4556 57.003 58.0364 56.3951C59.3736 55.0038 60.076 53.3829 60.076 51.7215C60.076 50.0465 59.3601 48.4391 57.9959 47.0884L50.5802 39.6457ZM55.4159 53.8692C55.4024 53.8692 55.4024 53.8827 55.4159 53.8692C54.8891 54.4365 54.3488 54.9498 53.768 55.5171C52.89 56.3546 51.9985 57.2326 51.161 58.2187C49.7967 59.6775 48.1893 60.3664 46.0821 60.3664C45.8795 60.3664 45.6634 60.3664 45.4608 60.3529C41.449 60.0962 37.7209 58.5293 34.9248 57.1921C27.2795 53.491 20.5662 48.2365 14.9875 41.5773C10.3814 36.0256 7.30169 30.8927 5.26204 25.3816C4.00583 22.0182 3.54657 19.3977 3.74918 16.9258C3.88426 15.3454 4.4921 14.0352 5.61324 12.9141L10.2193 8.30795C10.8812 7.6866 11.5836 7.34891 12.2725 7.34891C13.1235 7.34891 13.8124 7.8622 14.2446 8.29444C14.2581 8.30795 14.2716 8.32146 14.2851 8.33496C15.1091 9.1049 15.8926 9.90185 16.7165 10.7528C17.1353 11.1851 17.5675 11.6173 17.9997 12.0631L21.6873 15.7507C23.1191 17.1825 23.1191 18.5062 21.6873 19.938C21.2956 20.3297 20.9174 20.7215 20.5257 21.0997C19.391 22.2613 18.3104 23.3419 17.1353 24.3955C17.1082 24.4226 17.0812 24.4361 17.0677 24.4631C15.9061 25.6247 16.1222 26.7594 16.3653 27.5293C16.3788 27.5698 16.3923 27.6104 16.4058 27.6509C17.3649 29.9742 18.7156 32.1624 20.7688 34.7694L20.7823 34.7829C24.5104 39.3755 28.4411 42.955 32.7771 45.6971C33.3309 46.0483 33.8982 46.3319 34.4385 46.6021C34.9248 46.8452 35.3841 47.0749 35.7758 47.318C35.8298 47.345 35.8839 47.3855 35.9379 47.4126C36.3971 47.6422 36.8294 47.7502 37.2751 47.7502C38.3963 47.7502 39.0987 47.0478 39.3283 46.8182L43.9479 42.1986C44.4072 41.7393 45.1366 41.1855 45.9876 41.1855C46.825 41.1855 47.5139 41.7123 47.9327 42.1716C47.9462 42.1851 47.9462 42.1851 47.9597 42.1986L55.4024 49.6413C56.7937 51.0191 56.7937 52.4374 55.4159 53.8692Z" fill="currentColor"/>
<path d="M34.5871 15.2239C38.1261 15.8182 41.3409 17.4932 43.9074 20.0596C46.4738 22.6261 48.1353 25.8409 48.7431 29.3799C48.8917 30.2714 49.6616 30.8927 50.5396 30.8927C50.6477 30.8927 50.7423 30.8792 50.8503 30.8657C51.8499 30.7036 52.5118 29.7581 52.3497 28.7585C51.6203 24.4766 49.5941 20.5729 46.5009 17.4797C43.4076 14.3864 39.5039 12.3603 35.222 11.6309C34.2224 11.4688 33.2904 12.1306 33.1148 13.1167C32.9392 14.1028 33.5876 15.0618 34.5871 15.2239Z" fill="currentColor"/>
<path d="M63.9257 28.2318C62.7235 21.1808 59.4007 14.7646 54.2948 9.65875C49.1889 4.55286 42.7728 1.22998 35.7218 0.0278007C34.7357 -0.147799 33.8037 0.527583 33.6281 1.51364C33.466 2.51321 34.1279 3.44523 35.1274 3.62083C41.422 4.68794 47.1627 7.67312 51.7283 12.2252C56.2939 16.7908 59.2656 22.5315 60.3327 28.8261C60.4813 29.7176 61.2512 30.3389 62.1292 30.3389C62.2373 30.3389 62.3318 30.3254 62.4399 30.3119C63.4259 30.1633 64.1013 29.2178 63.9257 28.2318Z" fill="currentColor"/>
</symbol><symbol id="icon-place" viewBox="0 0 48 48">
<g clip-path="url(#clip0_4_80)">
<path d="M41.8886 46.3093L35.5606 32.9236C35.4343 32.6565 35.2155 32.4518 34.9531 32.3401L31.805 30.9387L37.2598 21.7964C37.2728 21.7744 37.2851 21.7522 37.2968 21.7295C38.3813 19.6127 38.9313 17.3253 38.9313 14.9312C38.9313 10.9038 37.352 7.12815 34.4842 4.2998C31.617 1.47212 27.8184 -0.0551661 23.7886 0.00145885C19.8747 0.0557401 16.1896 1.62783 13.4119 4.42833C10.6344 7.22865 9.09206 10.9264 9.06881 14.8408C9.05456 17.2328 9.61978 19.6148 10.703 21.7294C10.7146 21.752 10.7269 21.7743 10.7399 21.7963L16.1947 30.9385L13.0283 32.3476C12.7693 32.4629 12.5602 32.6671 12.4391 32.9235L6.11128 46.3093C5.8995 46.7569 5.98884 47.2892 6.33516 47.6433C6.68138 47.9974 7.21125 48.0989 7.66378 47.8975L15.5911 44.3682L23.5184 47.8975C23.8251 48.0339 24.1752 48.0339 24.4819 47.8975L32.4092 44.3682L40.3365 47.8975C40.4914 47.9664 40.6553 48 40.8179 48C41.1302 48 41.4374 47.8764 41.6651 47.6434C42.0112 47.2892 42.1004 46.7571 41.8886 46.3093ZM12.7943 20.6161C11.8822 18.8225 11.4257 16.8844 11.4378 14.8549C11.4779 8.06471 17.0333 2.46399 23.8216 2.36996C27.2122 2.3244 30.4087 3.60737 32.8209 5.98646C35.2339 8.36612 36.5626 11.5427 36.5626 14.9313C36.5626 16.9337 36.1061 18.8461 35.2057 20.6161L25.0172 37.6925C24.7061 38.2138 24.2023 38.27 24.0001 38.27C23.7978 38.27 23.294 38.2138 22.983 37.6925L12.7943 20.6161ZM32.8907 41.9897C32.584 41.8533 32.2339 41.8533 31.9272 41.9897L23.9999 45.5191L16.0726 41.9897C15.7659 41.8533 15.4158 41.8533 15.1091 41.9897L9.61744 44.4347L14.3929 34.3333L17.4171 32.9874L20.9484 38.9061C21.5957 39.991 22.7364 40.6387 23.9997 40.6387C25.263 40.6387 26.4037 39.991 27.051 38.9062L30.5824 32.9875L33.6068 34.3338L38.382 44.4348L32.8907 41.9897Z" fill="black"/>
<path d="M24.0004 9.52563C21.0197 9.52563 18.5948 11.9505 18.5948 14.9311C18.5948 17.9117 21.0197 20.3365 24.0004 20.3365C26.981 20.3366 29.4058 17.9117 29.4058 14.9311C29.4058 11.9505 26.981 9.52563 24.0004 9.52563ZM24.0004 17.9678C22.3259 17.9679 20.9635 16.6057 20.9635 14.9311C20.9635 13.2566 22.3258 11.8943 24.0004 11.8943C25.6748 11.8943 27.0371 13.2566 27.0371 14.9311C27.0371 16.6055 25.6748 17.9678 24.0004 17.9678Z" fill="black"/>
</g>

</symbol><symbol id="icon-select" viewBox="0 0 24 24">
<path d="M4.5 9L12 16.5" stroke="#0066CC" stroke-width="2" stroke-linecap="round" stroke-linejoin="round"/>
<path d="M19.5 9L12 16.5" stroke="#0066CC" stroke-width="2" stroke-linecap="round" stroke-linejoin="round"/>
</symbol><symbol id="icon-shield" viewBox="0 0 48 49">
<g clip-path="url(#clip0_4_91)">
<path d="M23.9905 27.3347C24.5089 27.3347 24.9298 26.9138 24.9298 26.3953C24.9298 25.8769 24.5089 25.456 23.9905 25.456C23.472 25.456 23.0511 25.8769 23.0511 26.3953C23.0511 26.9138 23.472 27.3347 23.9905 27.3347Z" fill="black"/>
<path d="M23.454 47.825C23.6173 47.9416 23.8084 48 24 48C24.1915 48 24.3827 47.9416 24.546 47.825C34.1165 40.9887 43.726 37.9891 43.726 23.9229V6.50853C43.726 6.02015 43.3514 5.61323 42.8648 5.5725L40.4233 5.36849C34.8258 4.90212 29.319 3.06235 24.4979 0.0487714C24.1934 -0.141664 23.8066 -0.141664 23.5021 0.0487714C18.6806 3.06235 13.1738 4.90212 7.5763 5.36886L5.13514 5.5725C4.64822 5.61323 4.27396 6.02015 4.27396 6.50853V23.9229C4.27396 38.3857 15.233 41.9526 23.454 47.825ZM6.15263 7.37265L7.73262 7.24092C13.435 6.76538 19.0461 4.93808 24 1.94762C28.9535 4.93808 34.5649 6.76538 40.267 7.24092L41.8473 7.37265V23.9229C41.8473 36.6065 33.3959 39.328 23.9985 45.9111C15.7511 40.1863 6.15263 36.9375 6.15263 23.9229V7.37265Z" fill="black"/>
<path d="M23.4525 40.9972C23.7938 41.2302 24.2235 41.2133 24.5474 40.9726C33.051 35.0867 38.09 33.1501 38.09 23.924V11.6037C38.09 11.1388 37.7499 10.7436 37.2901 10.6746C32.7945 9.99912 28.4681 8.60003 24.4308 6.51624C24.1402 6.36617 23.7941 6.38525 23.5278 6.53716C19.5018 8.60993 15.1893 10.0021 10.7099 10.6746C10.2501 10.7436 9.90997 11.1384 9.90997 11.6037V23.924C9.90997 33.237 15.4289 35.5226 23.4525 40.9972ZM11.7886 12.4047C15.6953 11.7439 19.4732 10.5554 23.0511 8.86568V22.6379C23.0511 23.1568 23.4716 23.5773 23.9905 23.5773C24.5093 23.5773 24.9298 23.1568 24.9298 22.6379V8.85688C28.5128 10.5506 32.2977 11.7424 36.2113 12.4047V23.924C36.2113 31.5598 32.6345 33.2245 24.9298 38.4353V30.1526C24.9298 29.6338 24.5093 29.2133 23.9905 29.2133C23.4716 29.2133 23.0511 29.6338 23.0511 30.1526V38.4624C15.8524 33.6704 11.7886 31.6225 11.7886 23.924V12.4047Z" fill="black"/>
</g>

</symbol><symbol id="icon-user" viewBox="0 0 14 17">
<path d="M7.00001 7.33334C7.65928 7.33334 8.30375 7.13784 8.85191 6.77157C9.40007 6.4053 9.82732 5.8847 10.0796 5.27562C10.3319 4.66653 10.3979 3.99631 10.2693 3.34971C10.1407 2.7031 9.82321 2.10916 9.35703 1.64298C8.89086 1.17681 8.29691 0.85934 7.65031 0.730722C7.00371 0.602105 6.33349 0.668116 5.7244 0.920408C5.11531 1.1727 4.59472 1.59994 4.22844 2.14811C3.86217 2.69627 3.66668 3.34074 3.66668 4.00001C3.66668 4.88406 4.01787 5.73191 4.64299 6.35703C5.26811 6.98215 6.11596 7.33334 7.00001 7.33334ZM13.425 12.5C11.7192 10.7993 9.40874 9.84434 7.00001 9.84434C4.59128 9.84434 2.2808 10.7993 0.57501 12.5L0.333344 12.75V16.5H13.6667V12.75L13.425 12.5Z" fill="white"/>
</symbol><symbol id="icon-way" viewBox="0 0 48 48">
<path fill-rule="evenodd" clip-rule="evenodd" d="M15.2285 7.62854C15.2285 5.50598 13.5015 3.77893 11.3785 3.77893C9.25598 3.77893 7.52893 5.50598 7.52893 7.62854C7.52893 9.75146 9.25598 11.4781 11.3785 11.4781C13.5015 11.4785 15.2285 9.75146 15.2285 7.62854ZM9.40393 7.62854C9.40393 6.53979 10.2898 5.65393 11.3785 5.65393C12.4677 5.65393 13.3535 6.53979 13.3535 7.62854C13.3535 8.71729 12.4677 9.60315 11.3785 9.60315C10.2898 9.60352 9.40393 8.71729 9.40393 7.62854Z" fill="black"/>
<path fill-rule="evenodd" clip-rule="evenodd" d="M37.2528 24.5629C34.8369 24.5629 32.7836 25.1649 31.5425 26.1215L28.1803 25.3729C27.676 25.2605 27.1743 25.5787 27.0615 26.0841C26.9491 26.5895 27.2673 27.0905 27.7731 27.2029L30.3501 27.7767C30.3021 27.9639 30.2765 28.1565 30.2765 28.3531C30.2765 29.6268 31.3191 30.7152 32.989 31.3949L31.4879 32.9392C31.1272 33.3105 31.1356 33.9042 31.507 34.2649C31.689 34.4421 31.9248 34.53 32.1603 34.53C32.4045 34.53 32.6488 34.4352 32.8326 34.2462L35.0504 31.9644C35.7374 32.0804 36.4761 32.1434 37.2528 32.1434C41.2299 32.1434 44.2291 30.5138 44.2291 28.3531C44.2291 26.1925 41.2299 24.5629 37.2528 24.5629ZM37.2528 30.2684C34.1862 30.2684 32.1515 29.1156 32.1515 28.3531C32.1515 28.1935 32.2416 28.017 32.4104 27.8375C32.4393 27.8123 32.4668 27.7855 32.4921 27.7562C33.1919 27.1025 34.9241 26.4379 37.2528 26.4379C40.3195 26.4379 42.3541 27.5907 42.3541 28.3531C42.3541 29.1156 40.3195 30.2684 37.2528 30.2684Z" fill="black"/>
<path fill-rule="evenodd" clip-rule="evenodd" d="M26.1046 41.1684L27.6057 39.6237C27.9664 39.2523 27.958 38.6591 27.5867 38.298C27.2157 37.9373 26.6221 37.9457 26.261 38.317L24.0432 40.5985C23.3562 40.4824 22.6176 40.4195 21.8408 40.4195C17.8638 40.4195 14.8645 42.0491 14.8645 44.2097C14.8645 46.3704 17.8638 48 21.8408 48C25.8179 48 28.8171 46.3704 28.8171 44.2097C28.8171 42.9361 27.7745 41.8477 26.1046 41.1684ZM21.8408 46.125C18.7742 46.125 16.7395 44.9722 16.7395 44.2097C16.7395 43.4473 18.7742 42.2945 21.8408 42.2945C24.9075 42.2945 26.9421 43.4473 26.9421 44.2097C26.9421 44.9722 24.9075 46.125 21.8408 46.125Z" fill="black"/>
<path fill-rule="evenodd" clip-rule="evenodd" d="M20.451 25.5725C20.5199 25.5879 20.588 25.5952 20.6558 25.5952C21.0853 25.5952 21.4728 25.2979 21.5698 24.8613C21.6823 24.356 21.364 23.855 20.8586 23.7426L18.2812 23.1683C18.3296 22.9812 18.3549 22.7889 18.3549 22.5919C18.3549 20.8352 16.4008 19.6487 14.1625 19.1151L18.3457 10.7366C18.3523 10.723 18.3589 10.7091 18.3651 10.6952C18.791 9.72583 19.0071 8.69421 19.0071 7.62854C19.0071 3.42224 15.5852 0 11.3785 0C7.17224 0 3.75 3.42224 3.75 7.62854C3.75 8.69385 3.96606 9.72546 4.39233 10.6952C4.39819 10.7091 4.40479 10.723 4.41174 10.7366L8.599 19.1235C6.35486 19.6699 4.40222 20.8568 4.40222 22.5923C4.40222 24.7529 7.40149 26.3822 11.3785 26.3822C13.7944 26.3822 15.8481 25.7802 17.0892 24.824L20.451 25.5725ZM5.625 7.62854C5.625 4.45605 8.20605 1.875 11.3785 1.875C14.551 1.875 17.1321 4.45605 17.1321 7.62854C17.1321 8.42542 16.9724 9.19629 16.6575 9.92029L11.3785 20.4935L6.09998 9.92029C5.78467 9.19592 5.625 8.42505 5.625 7.62854ZM6.27722 22.5923C6.27722 22.0997 7.49817 21.2435 9.46216 20.8524L10.5399 23.0109C10.6985 23.3287 11.0233 23.5294 11.3785 23.5294C11.7338 23.5294 12.0586 23.3287 12.2175 23.0109L13.2979 20.8466C15.2842 21.2234 16.4799 22.0774 16.4799 22.5919C16.4799 22.752 16.389 22.9292 16.2195 23.1094C16.1909 23.1346 16.1638 23.161 16.1385 23.1896C15.4387 23.8429 13.7065 24.5072 11.3785 24.5072C8.31189 24.5072 6.27722 23.3547 6.27722 22.5923Z" fill="black"/>
<path fill-rule="evenodd" clip-rule="evenodd" d="M29.5466 35.3441C29.0303 35.3441 28.6091 35.7649 28.6091 36.2816C28.6091 36.798 29.0303 37.2191 29.5466 37.2191C30.063 37.2191 30.4841 36.798 30.4841 36.2816C30.4841 35.7649 30.063 35.3441 29.5466 35.3441Z" fill="black"/>
<path fill-rule="evenodd" clip-rule="evenodd" d="M24.3157 26.41C24.832 26.41 25.2532 25.9889 25.2532 25.4725C25.2532 24.9562 24.832 24.535 24.3157 24.535C23.7993 24.535 23.3782 24.9562 23.3782 25.4725C23.3782 25.9889 23.7993 26.41 24.3157 26.41Z" fill="black"/>
</symbol></svg>